# xmcd
#
# Track frame offsets: 
#        150
#        20130
#        38397
#        56297
#        78800
#        101557
#        121990
#        143862
#        163087
#        181782
#
# Disc length: 2702 seconds
#
# Revision: 0
# Processed by: cddbd v1.5.2PL0 Copyright (c) Steve Scherf et al.
# Submitted via: ExactAudioCopy v0.99pb5
#
DISCID=730a8c0a
DTITLE=Various Artist - KHCD-Tinh ca Vu Tuan Duc
DYEAR=1900
DGENRE=Hai ngoai
TTITLE0=Tinh da vut bay - Khanh Ha
TTITLE1=Toc ngang bo vai - Tuan Ngoc
TTITLE2=Nho anh chieu nay - Khanh Ha
TTITLE3=Chieu nho - Lan Anh
TTITLE4=Chua voi sau dau - Khanh Ha
TTITLE5=All Alone - Khanh Ha
TTITLE6=Xin hay roi xa /Anh Tu
TTITLE7=Phut chia xa - Luu Bich
TTITLE8=Anh mo ve em - Vu Tuan Duc
TTITLE9=Tinh da doi thay - Khanh Ha
EXTD=
EXTT0=
EXTT1=
EXTT2=
EXTT3=
EXTT4=
EXTT5=
EXTT6=
EXTT7=
EXTT8=
EXTT9=
PLAYORDER=
